<svg>

<symbol fill="none" xmlns="http://www.w3.org/2000/svg" id="logo">
<path d="M42.307 5.2V42.08h-9.1V19.962L24.852 42.08h-7.344L9.1 19.909v22.17H0V5.2h10.75l10.483 25.53L31.61 5.202h10.697ZM77.936 12.765 59.311 56h-9.792l6.812-14.92-12.08-28.314h10.164l6.865 18.333 6.811-18.334h9.845ZM102.597 23.167c2.164.455 3.902 1.523 5.215 3.204 1.312 1.646 1.969 3.538 1.969 5.674 0 3.082-1.1 5.533-3.3 7.355-2.164 1.786-5.197 2.679-9.1 2.679H79.98V5.2h16.816c3.796 0 6.758.858 8.887 2.574 2.164 1.716 3.246 4.045 3.246 6.987 0 2.171-.585 3.975-1.756 5.41-1.135 1.436-2.661 2.435-4.576 2.995ZM89.08 20.12h5.96c1.49 0 2.625-.315 3.406-.946.816-.665 1.224-1.628 1.224-2.889 0-1.26-.408-2.224-1.224-2.89-.78-.665-1.916-.997-3.406-.997h-5.96v7.722Zm6.705 14.71c1.526 0 2.696-.333 3.512-.999.852-.7 1.277-1.698 1.277-2.994 0-1.296-.443-2.312-1.33-3.047-.852-.736-2.04-1.103-3.566-1.103H89.08v8.142h6.705ZM118.388 9.719c-1.596 0-2.909-.456-3.938-1.366-.993-.946-1.49-2.102-1.49-3.467 0-1.401.497-2.557 1.49-3.468C115.479.473 116.792 0 118.388 0c1.561 0 2.838.473 3.832 1.418 1.028.911 1.543 2.067 1.543 3.468 0 1.365-.515 2.521-1.543 3.467-.994.91-2.271 1.366-3.832 1.366Zm4.523 3.046V42.08h-9.1V12.765h9.1ZM149.918 42.079l-12.559-16.285v16.285h-9.1V5.2h9.1v16.18L149.811 5.2h10.697l-14.475 18.071 15.007 18.807h-11.122ZM173.217 12.398v7.46h12.187v6.934h-12.187v8.09H187v7.197h-22.883V5.2H187v7.197h-13.783Z" fill="#fff"/></symbol>

<symbol xmlns="http://www.w3.org/2000/svg" fill="none" id="phone">
<g clip-path="url(#a)"><path d="M20.01 15.38c-1.23 0-2.42-.2-3.53-.56a.977.977 0 0 0-1.01.24l-1.57 1.97c-2.83-1.35-5.48-3.9-6.89-6.83l1.95-1.66c.27-.28.35-.67.24-1.02-.37-1.11-.56-2.3-.56-3.53 0-.54-.45-.99-.99-.99H4.19C3.65 3 3 3.24 3 3.99 3 13.28 10.73 21 20.01 21c.71 0 .99-.63.99-1.18v-3.45c0-.54-.45-.99-.99-.99Z" fill="#fff"/></g><defs><clipPath id="a"><path fill="#fff" d="M0 0h24v24H0z"/></clipPath></defs></symbol>

<symbol xmlns="http://www.w3.org/2000/svg" fill="none" id="burger">
<g clip-path="url(#a)"><path d="M3 17a1 1 0 0 0 1 1h16a1 1 0 1 0 0-2H4a1 1 0 0 0-1 1Zm0-5a1 1 0 0 0 1 1h16a1 1 0 1 0 0-2H4a1 1 0 0 0-1 1Zm1-6a1 1 0 0 0 0 2h16a1 1 0 1 0 0-2H4Z" fill="#fff"/></g><defs><clipPath id="a"><path fill="#fff" d="M0 0h24v24H0z"/></clipPath></defs></symbol>

<symbol xmlns="http://www.w3.org/2000/svg" fill="none" id="burger-hover">
<g clip-path="url(#a)"><path d="M3 17a1 1 0 0 0 1 1h7a1 1 0 1 0 0-2H4a1 1 0 0 0-1 1Zm0-5a1 1 0 0 0 1 1h16a1 1 0 1 0 0-2H4a1 1 0 0 0-1 1Zm1-6a1 1 0 0 0 0 2h11a1 1 0 1 0 0-2H4Z" fill="#fff"/></g><defs><clipPath id="a"><path fill="#fff" d="M0 0h24v24H0z"/></clipPath></defs></symbol>

<symbol xmlns="http://www.w3.org/2000/svg" fill="none" id="cross">
<path d="M19.194 6.417a1.14 1.14 0 1 0-1.611-1.611L12 10.389 6.417 4.806a1.14 1.14 0 1 0-1.611 1.611L10.389 12l-5.583 5.583a1.14 1.14 0 1 0 1.611 1.611L12 13.611l5.583 5.583a1.14 1.14 0 1 0 1.611-1.611L13.611 12l5.583-5.583Z" fill="#1D1D1D"/></symbol>

</svg>
